<svg width="442" height="24" viewBox="0 0 442 24" fill="none" xmlns="http://www.w3.org/2000/svg">
<rect width="16" height="16" transform="translate(0 4)" fill="white" style="mix-blend-mode:multiply"/>
<path d="M8 5C6.61553 5 5.26216 5.41054 4.11101 6.17971C2.95987 6.94888 2.06266 8.04213 1.53285 9.32122C1.00303 10.6003 0.86441 12.0078 1.13451 13.3656C1.4046 14.7235 2.07129 15.9708 3.05026 16.9497C4.02922 17.9287 5.2765 18.5954 6.63437 18.8655C7.99224 19.1356 9.3997 18.997 10.6788 18.4672C11.9579 17.9373 13.0511 17.0401 13.8203 15.889C14.5895 14.7378 15 13.3845 15 12C15 10.1435 14.2625 8.36301 12.9497 7.05025C11.637 5.7375 9.85652 5 8 5ZM7 14.7954L4.5 12.2954L5.2953 11.5L7 13.2046L10.705 9.5L11.5029 10.293L7 14.7954Z" fill="white"/>
<path d="M32.4435 18V16.944H26.7315V12.768H31.8995V11.728H26.7315V7.6H32.4275V6.544H25.5795V18H32.4435ZM34.8466 18L37.0066 14.896L39.1826 18H40.4946L37.7586 14.144L40.5106 10.256H39.2306L37.0546 13.36L34.8626 10.256H33.5666L36.3186 14.128L33.5506 18H34.8466ZM41.0143 14.144C41.0143 16.576 42.5023 18.192 44.6943 18.192C46.4543 18.192 47.8303 17.152 48.1983 15.568H47.0783C46.7743 16.56 45.8463 17.2 44.6943 17.2C43.1263 17.2 42.1023 15.968 42.1023 14.128C42.1023 12.224 43.2063 11.024 44.7743 11.024C45.8463 11.024 46.7743 11.616 47.0623 12.688H48.1663C47.8623 11.088 46.5503 10.048 44.7583 10.048C42.5023 10.048 41.0143 11.712 41.0143 14.144ZM51.0228 18V6.336H49.9188V18H51.0228ZM58.8108 10.256V14.368C58.8108 16.208 57.9308 17.2 56.4427 17.2C55.2108 17.2 54.3948 16.544 54.3948 14.704V10.24H53.2747V15.056C53.2747 16.944 54.2668 18.192 56.0908 18.192C57.3068 18.192 58.3788 17.584 58.8108 16.688L58.9548 18H59.9148V10.256H58.8108ZM61.4023 15.824C61.4023 17.264 62.4903 18.192 64.2343 18.192C65.9943 18.192 67.1783 17.28 67.1783 15.888C67.1783 14.768 66.5703 14.144 65.2263 13.808L63.8983 13.472C63.0503 13.264 62.6343 12.848 62.6343 12.256C62.6343 11.424 63.2423 10.96 64.3303 10.96C65.3703 10.96 65.9943 11.488 66.0263 12.384H67.0983C67.0503 10.944 65.9943 10.048 64.3623 10.048C62.6983 10.048 61.5623 10.912 61.5623 12.272C61.5623 13.328 62.2183 14.032 63.5623 14.368L64.8903 14.704C65.8023 14.928 66.1223 15.296 66.1223 15.936C66.1223 16.768 65.4183 17.28 64.2183 17.28C63.1303 17.28 62.4583 16.72 62.4583 15.824H61.4023ZM69.5398 8.128C69.9878 8.128 70.3718 7.76 70.3718 7.312C70.3718 6.864 69.9878 6.48 69.5398 6.48C69.0918 6.48 68.7238 6.864 68.7238 7.312C68.7238 7.76 69.0918 8.128 69.5398 8.128ZM68.9958 18H70.0998V10.256H68.9958V18ZM74.562 18H75.666L78.882 10.256H77.746L75.714 15.248C75.49 15.808 75.282 16.32 75.138 16.848C74.994 16.336 74.786 15.808 74.578 15.248L72.578 10.256H71.394L74.562 18ZM83.0875 18.192C84.9115 18.192 86.1115 17.312 86.5275 15.68H85.4715C85.1835 16.704 84.3675 17.248 83.1035 17.248C81.4395 17.248 80.4475 16.16 80.3675 14.272H86.5275V13.728C86.5275 11.536 85.1035 10.048 83.0075 10.048C80.7995 10.048 79.2955 11.712 79.2955 14.128C79.2955 16.56 80.8155 18.192 83.0875 18.192ZM83.0075 10.992C84.4635 10.992 85.4235 11.984 85.4235 13.472H80.3995C80.5915 11.952 81.5515 10.992 83.0075 10.992ZM92.1861 14.128C92.1861 16.48 93.8501 18.192 96.1221 18.192C98.3941 18.192 100.058 16.48 100.058 14.128C100.058 11.76 98.3941 10.048 96.1221 10.048C93.8501 10.048 92.1861 11.76 92.1861 14.128ZM93.3061 14.112C93.3061 12.32 94.4581 11.04 96.1221 11.04C97.7701 11.04 98.9381 12.32 98.9381 14.112C98.9381 15.936 97.7701 17.2 96.1221 17.2C94.4581 17.2 93.3061 15.936 93.3061 14.112ZM100.897 10.256V11.184H102.081V18H103.185V11.184H106.865V18H107.969V11.184H109.793V10.256H107.969V8.752C107.969 7.84 108.225 7.36 109.201 7.36H109.857V6.4C109.601 6.352 109.281 6.336 109.009 6.336C107.825 6.336 106.865 7.008 106.865 8.752V10.256H103.185V8.752C103.185 7.84 103.441 7.36 104.401 7.36H105.073V6.4C104.817 6.352 104.497 6.336 104.225 6.336C103.025 6.336 102.081 7.008 102.081 8.752V10.256H100.897ZM114.306 18.192C116.13 18.192 117.33 17.312 117.746 15.68H116.69C116.402 16.704 115.586 17.248 114.322 17.248C112.658 17.248 111.666 16.16 111.586 14.272H117.746V13.728C117.746 11.536 116.322 10.048 114.226 10.048C112.018 10.048 110.514 11.712 110.514 14.128C110.514 16.56 112.034 18.192 114.306 18.192ZM114.226 10.992C115.682 10.992 116.642 11.984 116.642 13.472H111.618C111.81 11.952 112.77 10.992 114.226 10.992ZM123.559 10.16C123.287 10.096 123.079 10.08 122.839 10.08C121.751 10.08 120.935 10.624 120.631 11.456L120.551 10.256H119.511V18H120.615V13.584C120.615 12.112 121.527 11.152 122.951 11.152H123.559V10.16ZM124.371 15.824C124.371 17.264 125.459 18.192 127.203 18.192C128.963 18.192 130.147 17.28 130.147 15.888C130.147 14.768 129.539 14.144 128.195 13.808L126.867 13.472C126.019 13.264 125.603 12.848 125.603 12.256C125.603 11.424 126.211 10.96 127.299 10.96C128.339 10.96 128.963 11.488 128.995 12.384H130.067C130.019 10.944 128.963 10.048 127.331 10.048C125.667 10.048 124.531 10.912 124.531 12.272C124.531 13.328 125.187 14.032 126.531 14.368L127.859 14.704C128.771 14.928 129.091 15.296 129.091 15.936C129.091 16.768 128.387 17.28 127.187 17.28C126.099 17.28 125.427 16.72 125.427 15.824H124.371Z" fill="white"/>
<rect width="16" height="16" transform="translate(167 4)" fill="white" style="mix-blend-mode:multiply"/>
<path d="M175 5C173.616 5 172.262 5.41054 171.111 6.17971C169.96 6.94888 169.063 8.04213 168.533 9.32122C168.003 10.6003 167.864 12.0078 168.135 13.3656C168.405 14.7235 169.071 15.9708 170.05 16.9497C171.029 17.9287 172.277 18.5954 173.634 18.8655C174.992 19.1356 176.4 18.997 177.679 18.4672C178.958 17.9373 180.051 17.0401 180.82 15.889C181.589 14.7378 182 13.3845 182 12C182 10.1435 181.263 8.36301 179.95 7.05025C178.637 5.7375 176.857 5 175 5ZM174 14.7954L171.5 12.2954L172.295 11.5L174 13.2046L177.705 9.5L178.503 10.293L174 14.7954Z" fill="white"/>
<path d="M198.435 12.96V11.92H193.747V7.6H199.347V6.544H192.595V18H193.747V12.96H198.435ZM204.606 10.16C204.334 10.096 204.126 10.08 203.886 10.08C202.798 10.08 201.982 10.624 201.678 11.456L201.598 10.256H200.558V18H201.662V13.584C201.662 12.112 202.574 11.152 203.998 11.152H204.606V10.16ZM209.025 18.192C210.849 18.192 212.049 17.312 212.465 15.68H211.409C211.121 16.704 210.305 17.248 209.041 17.248C207.377 17.248 206.385 16.16 206.305 14.272H212.465V13.728C212.465 11.536 211.041 10.048 208.945 10.048C206.737 10.048 205.233 11.712 205.233 14.128C205.233 16.56 206.753 18.192 209.025 18.192ZM208.945 10.992C210.401 10.992 211.361 11.984 211.361 13.472H206.337C206.529 11.952 207.489 10.992 208.945 10.992ZM217.478 18.192C219.302 18.192 220.502 17.312 220.918 15.68H219.862C219.574 16.704 218.758 17.248 217.494 17.248C215.83 17.248 214.838 16.16 214.758 14.272H220.918V13.728C220.918 11.536 219.494 10.048 217.398 10.048C215.19 10.048 213.686 11.712 213.686 14.128C213.686 16.56 215.206 18.192 217.478 18.192ZM217.398 10.992C218.854 10.992 219.814 11.984 219.814 13.472H214.79C214.982 11.952 215.942 10.992 217.398 10.992ZM230.369 18.192C232.193 18.192 233.393 17.312 233.809 15.68H232.753C232.465 16.704 231.649 17.248 230.385 17.248C228.721 17.248 227.729 16.16 227.649 14.272H233.809V13.728C233.809 11.536 232.385 10.048 230.289 10.048C228.081 10.048 226.577 11.712 226.577 14.128C226.577 16.56 228.097 18.192 230.369 18.192ZM230.289 10.992C231.745 10.992 232.705 11.984 232.705 13.472H227.681C227.873 11.952 228.833 10.992 230.289 10.992ZM237.531 18H238.635L241.851 10.256H240.715L238.683 15.248C238.459 15.808 238.251 16.32 238.107 16.848C237.963 16.336 237.755 15.808 237.547 15.248L235.547 10.256H234.363L237.531 18ZM246.056 18.192C247.88 18.192 249.08 17.312 249.496 15.68H248.44C248.152 16.704 247.336 17.248 246.072 17.248C244.408 17.248 243.416 16.16 243.336 14.272H249.496V13.728C249.496 11.536 248.072 10.048 245.976 10.048C243.768 10.048 242.264 11.712 242.264 14.128C242.264 16.56 243.784 18.192 246.056 18.192ZM245.976 10.992C247.432 10.992 248.392 11.984 248.392 13.472H243.368C243.56 11.952 244.52 10.992 245.976 10.992ZM252.365 18V13.952C252.365 12.208 253.261 11.056 254.845 11.056C256.125 11.056 256.941 11.696 256.941 13.504V18H258.045V13.264C258.045 11.312 257.165 10.048 255.037 10.048C253.917 10.048 252.893 10.608 252.381 11.6L252.221 10.256H251.261V18H252.365ZM262.022 18V11.184H263.574V10.256H262.022V7.808H260.934V10.256H259.382V11.184H260.934V18H262.022ZM264.355 15.824C264.355 17.264 265.443 18.192 267.187 18.192C268.947 18.192 270.131 17.28 270.131 15.888C270.131 14.768 269.523 14.144 268.179 13.808L266.851 13.472C266.003 13.264 265.587 12.848 265.587 12.256C265.587 11.424 266.195 10.96 267.283 10.96C268.323 10.96 268.947 11.488 268.979 12.384H270.051C270.003 10.944 268.947 10.048 267.315 10.048C265.651 10.048 264.515 10.912 264.515 12.272C264.515 13.328 265.171 14.032 266.515 14.368L267.843 14.704C268.755 14.928 269.075 15.296 269.075 15.936C269.075 16.768 268.371 17.28 267.171 17.28C266.083 17.28 265.411 16.72 265.411 15.824H264.355Z" fill="white"/>
<rect width="16" height="16" transform="translate(307 4)" fill="white" style="mix-blend-mode:multiply"/>
<path d="M315 5C313.616 5 312.262 5.41054 311.111 6.17971C309.96 6.94888 309.063 8.04213 308.533 9.32122C308.003 10.6003 307.864 12.0078 308.135 13.3656C308.405 14.7235 309.071 15.9708 310.05 16.9497C311.029 17.9287 312.277 18.5954 313.634 18.8655C314.992 19.1356 316.4 18.997 317.679 18.4672C318.958 17.9373 320.051 17.0401 320.82 15.889C321.589 14.7378 322 13.3845 322 12C322 10.1435 321.263 8.36301 319.95 7.05025C318.637 5.7375 316.857 5 315 5ZM314 14.7954L311.5 12.2954L312.295 11.5L314 13.2046L317.705 9.5L318.503 10.293L314 14.7954Z" fill="white"/>
<path d="M333.771 6.544H332.619V18H339.035V16.944H333.771V6.544ZM342.743 18.192C344.055 18.192 345.111 17.616 345.591 16.64L345.735 18H346.663V12.992C346.663 10.944 345.351 10.048 343.559 10.048C341.655 10.048 340.375 11.056 340.375 12.624H341.383C341.383 11.584 342.183 10.976 343.527 10.976C344.663 10.976 345.575 11.456 345.575 12.976V13.232L343.015 13.44C341.207 13.584 340.119 14.48 340.119 15.904C340.119 17.264 341.095 18.192 342.743 18.192ZM342.999 17.296C341.943 17.296 341.239 16.816 341.239 15.872C341.239 15.008 341.831 14.368 343.287 14.24L345.575 14.064V14.48C345.575 16.16 344.631 17.296 342.999 17.296ZM352.927 10.16C352.655 10.096 352.447 10.08 352.207 10.08C351.119 10.08 350.303 10.624 349.999 11.456L349.919 10.256H348.879V18H349.983V13.584C349.983 12.112 350.895 11.152 352.319 11.152H352.927V10.16ZM353.726 13.904C353.726 16.016 355.07 17.76 357.278 17.76C358.606 17.76 359.678 17.12 360.206 16.032V17.872C360.206 19.488 359.15 20.56 357.566 20.56C356.174 20.56 355.214 19.824 354.974 18.576H353.87C354.174 20.448 355.566 21.568 357.55 21.568C359.822 21.568 361.294 20.064 361.294 17.76V10.256H360.334L360.222 11.808C359.726 10.672 358.702 10.048 357.358 10.048C355.086 10.048 353.726 11.792 353.726 13.904ZM354.83 13.888C354.83 12.32 355.79 11.024 357.454 11.024C359.15 11.024 360.11 12.24 360.11 13.888C360.11 15.552 359.118 16.768 357.438 16.768C355.806 16.768 354.83 15.472 354.83 13.888ZM366.845 18.192C368.669 18.192 369.869 17.312 370.285 15.68H369.229C368.941 16.704 368.125 17.248 366.861 17.248C365.197 17.248 364.205 16.16 364.125 14.272H370.285V13.728C370.285 11.536 368.861 10.048 366.765 10.048C364.557 10.048 363.053 11.712 363.053 14.128C363.053 16.56 364.573 18.192 366.845 18.192ZM366.765 10.992C368.221 10.992 369.181 11.984 369.181 13.472H364.157C364.349 11.952 365.309 10.992 366.765 10.992ZM379.528 18.192C380.824 18.192 381.912 17.616 382.456 16.416L382.568 18H383.528V6.336H382.424V11.728C381.88 10.608 380.856 10.048 379.576 10.048C377.272 10.048 375.944 11.808 375.944 14.144C375.944 16.464 377.272 18.192 379.528 18.192ZM379.72 17.184C378.04 17.184 377.064 15.904 377.064 14.112C377.064 12.336 378.04 11.04 379.72 11.04C381.416 11.04 382.408 12.336 382.408 14.112C382.408 15.904 381.416 17.184 379.72 17.184ZM386.376 8.128C386.824 8.128 387.208 7.76 387.208 7.312C387.208 6.864 386.824 6.48 386.376 6.48C385.928 6.48 385.56 6.864 385.56 7.312C385.56 7.76 385.928 8.128 386.376 8.128ZM385.832 18H386.936V10.256H385.832V18ZM388.582 15.824C388.582 17.264 389.67 18.192 391.414 18.192C393.174 18.192 394.358 17.28 394.358 15.888C394.358 14.768 393.75 14.144 392.406 13.808L391.078 13.472C390.23 13.264 389.814 12.848 389.814 12.256C389.814 11.424 390.422 10.96 391.51 10.96C392.55 10.96 393.174 11.488 393.206 12.384H394.278C394.23 10.944 393.174 10.048 391.542 10.048C389.878 10.048 388.742 10.912 388.742 12.272C388.742 13.328 389.398 14.032 390.742 14.368L392.07 14.704C392.982 14.928 393.302 15.296 393.302 15.936C393.302 16.768 392.598 17.28 391.398 17.28C390.31 17.28 389.638 16.72 389.638 15.824H388.582ZM395.631 14.144C395.631 16.576 397.119 18.192 399.311 18.192C401.071 18.192 402.447 17.152 402.815 15.568H401.695C401.391 16.56 400.463 17.2 399.311 17.2C397.743 17.2 396.719 15.968 396.719 14.128C396.719 12.224 397.823 11.024 399.391 11.024C400.463 11.024 401.391 11.616 401.679 12.688H402.783C402.479 11.088 401.167 10.048 399.375 10.048C397.119 10.048 395.631 11.712 395.631 14.144ZM403.944 14.128C403.944 16.48 405.608 18.192 407.88 18.192C410.152 18.192 411.816 16.48 411.816 14.128C411.816 11.76 410.152 10.048 407.88 10.048C405.608 10.048 403.944 11.76 403.944 14.128ZM405.064 14.112C405.064 12.32 406.216 11.04 407.88 11.04C409.528 11.04 410.696 12.32 410.696 14.112C410.696 15.936 409.528 17.2 407.88 17.2C406.216 17.2 405.064 15.936 405.064 14.112ZM418.834 10.256V14.368C418.834 16.208 417.954 17.2 416.466 17.2C415.234 17.2 414.418 16.544 414.418 14.704V10.24H413.298V15.056C413.298 16.944 414.29 18.192 416.114 18.192C417.33 18.192 418.402 17.584 418.834 16.688L418.978 18H419.938V10.256H418.834ZM423.342 18V13.952C423.342 12.208 424.238 11.056 425.822 11.056C427.102 11.056 427.918 11.696 427.918 13.504V18H429.022V13.264C429.022 11.312 428.142 10.048 426.014 10.048C424.894 10.048 423.87 10.608 423.358 11.6L423.198 10.256H422.238V18H423.342ZM432.998 18V11.184H434.55V10.256H432.998V7.808H431.91V10.256H430.358V11.184H431.91V18H432.998ZM435.332 15.824C435.332 17.264 436.42 18.192 438.164 18.192C439.924 18.192 441.108 17.28 441.108 15.888C441.108 14.768 440.5 14.144 439.156 13.808L437.828 13.472C436.98 13.264 436.564 12.848 436.564 12.256C436.564 11.424 437.172 10.96 438.26 10.96C439.3 10.96 439.924 11.488 439.956 12.384H441.028C440.98 10.944 439.924 10.048 438.292 10.048C436.628 10.048 435.492 10.912 435.492 12.272C435.492 13.328 436.148 14.032 437.492 14.368L438.82 14.704C439.732 14.928 440.052 15.296 440.052 15.936C440.052 16.768 439.348 17.28 438.148 17.28C437.06 17.28 436.388 16.72 436.388 15.824H435.332Z" fill="white"/>
</svg>
