<svg width="14" height="12" viewBox="0 0 14 12" fill="none" xmlns="http://www.w3.org/2000/svg">
<path d="M7 5.5H1V6.5H7V5.5Z" fill="white"/>
<path d="M5 3H0V4H5V3Z" fill="white"/>
<path d="M13.9594 5.8032L12.4594 2.3032C12.421 2.21319 12.357 2.13646 12.2753 2.08256C12.1936 2.02865 12.0979 1.99994 12 2H10.5V1C10.5 0.867392 10.4473 0.740215 10.3536 0.646447C10.2598 0.552679 10.1326 0.5 10 0.5H2V1.5H9.5V7.7781C9.27219 7.9104 9.07282 8.08648 8.91339 8.2962C8.75395 8.50591 8.6376 8.74511 8.57105 9H5.42895C5.30725 8.52867 5.01784 8.11791 4.61495 7.8447C4.21206 7.57149 3.72336 7.4546 3.24045 7.51594C2.75754 7.57728 2.31358 7.81263 1.99179 8.17788C1.66999 8.54314 1.49246 9.01321 1.49246 9.5C1.49246 9.98679 1.66999 10.4569 1.99179 10.8221C2.31358 11.1874 2.75754 11.4227 3.24045 11.4841C3.72336 11.5454 4.21206 11.4285 4.61495 11.1553C5.01784 10.8821 5.30725 10.4713 5.42895 10H8.57105C8.68007 10.4289 8.92892 10.8092 9.27825 11.0808C9.62758 11.3525 10.0575 11.4999 10.5 11.4999C10.9425 11.4999 11.3724 11.3525 11.7217 11.0808C12.0711 10.8092 12.3199 10.4289 12.429 10H13.5C13.6326 10 13.7598 9.94732 13.8536 9.85355C13.9473 9.75979 14 9.63261 14 9.5V6C14 5.93233 13.9862 5.86537 13.9594 5.8032ZM3.5 10.5C3.30222 10.5 3.10888 10.4414 2.94443 10.3315C2.77998 10.2216 2.65181 10.0654 2.57612 9.88268C2.50043 9.69996 2.48063 9.49889 2.51921 9.30491C2.5578 9.11093 2.65304 8.93275 2.79289 8.79289C2.93275 8.65304 3.11093 8.5578 3.30491 8.51921C3.49889 8.48063 3.69996 8.50043 3.88268 8.57612C4.06541 8.65181 4.22159 8.77998 4.33147 8.94443C4.44135 9.10888 4.5 9.30222 4.5 9.5C4.4997 9.76512 4.39424 10.0193 4.20677 10.2068C4.0193 10.3942 3.76512 10.4997 3.5 10.5ZM10.5 3H11.6704L12.742 5.5H10.5V3ZM10.5 10.5C10.3022 10.5 10.1089 10.4414 9.94443 10.3315C9.77998 10.2216 9.65181 10.0654 9.57612 9.88268C9.50043 9.69996 9.48063 9.49889 9.51921 9.30491C9.5578 9.11093 9.65304 8.93275 9.79289 8.79289C9.93275 8.65304 10.1109 8.5578 10.3049 8.51921C10.4989 8.48063 10.7 8.50043 10.8827 8.57612C11.0654 8.65181 11.2216 8.77998 11.3315 8.94443C11.4414 9.10888 11.5 9.30222 11.5 9.5C11.4997 9.76512 11.3942 10.0193 11.2068 10.2068C11.0193 10.3942 10.7651 10.4997 10.5 10.5ZM13 9H12.429C12.3188 8.57174 12.0696 8.19214 11.7206 7.92069C11.3715 7.64923 10.9422 7.50128 10.5 7.5V6.5H13V9Z" fill="white"/>
</svg>
